<svg data-name="Слой 1" xmlns="http://www.w3.org/2000/svg" viewBox="0 0 15 15.27"><path d="M3 0a.27.27 0 0 1 .2.08l2.72 2.71A.4.4 0 0 1 6 3a.27.27 0 0 1-.28.27H4.1V15a.27.27 0 0 1-.28.28H2.19a.28.28 0 0 1-.2-.08.24.24 0 0 1-.07-.2V3.27H.28A.26.26 0 0 1 0 3.1a.28.28 0 0 1 .06-.3L2.81.08A.28.28 0 0 1 3 0zm4.64 11h7.09a.22.22 0 0 1 .19.08.19.19 0 0 1 .07.12v1.71a.26.26 0 0 1-.08.19.19.19 0 0 1-.12.07H7.64a.32.32 0 0 1-.2-.08.23.23 0 0 1-.06-.09v-1.75a.25.25 0 0 1 .07-.19.24.24 0 0 1 .12-.06zm5.45-4.36a.27.27 0 0 1 .2.07.26.26 0 0 1 .07.2v1.62a.25.25 0 0 1-.07.19.3.3 0 0 1-.2.08H7.64a.32.32 0 0 1-.2-.08.23.23 0 0 1-.07-.19V6.89a.27.27 0 0 1 .07-.2.31.31 0 0 1 .2-.07zm-1.63-4.38a.25.25 0 0 1 .19.07.25.25 0 0 1 .07.12v1.71a.28.28 0 0 1-.08.2.24.24 0 0 1-.12.07H7.64a.32.32 0 0 1-.2-.08.27.27 0 0 1-.06-.12v-1.7a.27.27 0 0 1 .07-.2l.12-.07h3.9z" fill="#777"/></svg>