<?xml version="1.0" encoding="utf-8"?>
<!-- Generator: Adobe Illustrator 23.0.0, SVG Export Plug-In . SVG Version: 6.00 Build 0)  -->
<svg version="1.1" id="Layer_1" xmlns="http://www.w3.org/2000/svg" xmlns:xlink="http://www.w3.org/1999/xlink" x="0px" y="0px"
	 viewBox="0 0 14 14" style="enable-background:new 0 0 14 14;" xml:space="preserve">
<style type="text/css">
	.st0{fill-rule:evenodd;clip-rule:evenodd;}
	.st1{filter:url(#Adobe_OpacityMaskFilter);}
	.st2{fill-rule:evenodd;clip-rule:evenodd;fill:#FFFFFF;}
	.st3{mask:url(#b_1_);fill-rule:evenodd;clip-rule:evenodd;}
</style>
<g>
	<path class="st0" d="M13.4,0H8.2C7.9,0,7.6,0.3,7.6,0.6c0,0.4,0.3,0.6,0.6,0.6h3.6L5.2,7.9c-0.3,0.3-0.3,0.7,0,0.9s0.7,0.3,0.9,0
		l6.6-6.6v3.6c0,0.4,0.3,0.6,0.6,0.6c0.4,0,0.6-0.3,0.6-0.6V0.6C14,0.3,13.7,0,13.4,0C13.4,0,13.4,0,13.4,0"/>
	<g transform="translate(0 3)">
		<defs>
			<filter id="Adobe_OpacityMaskFilter" filterUnits="userSpaceOnUse" x="0" y="0" width="11" height="11">
				<feColorMatrix  type="matrix" values="1 0 0 0 0  0 1 0 0 0  0 0 1 0 0  0 0 0 1 0"/>
			</filter>
		</defs>
		<mask maskUnits="userSpaceOnUse" x="0" y="0" width="11" height="11" id="b_1_">
			<g class="st1">
				<path id="a_1_" class="st2" d="M0,0h11v11H0V0z"/>
			</g>
		</mask>
		<path class="st3" d="M10.4,3.7c-0.3,0-0.6,0.3-0.6,0.6v5.5H1.2V1.2h5.5c0.3,0,0.6-0.3,0.6-0.6S7.1,0,6.7,0H0.6C0.3,0,0,0.3,0,0.6
			v9.8C0,10.7,0.3,11,0.6,11h9.8c0.3,0,0.6-0.3,0.6-0.6V4.3C11,3.9,10.7,3.7,10.4,3.7"/>
	</g>
</g>
</svg>
