<svg xmlns="http://www.w3.org/2000/svg" enable-background="new 0 0 38 36" viewBox="0 0 38 36"><g transform="translate(1 1)"><defs><filter id="a" width="38" height="36" x="-1" y="-1" filterUnits="userSpaceOnUse"><feColorMatrix values="1 0 0 0 0 0 1 0 0 0 0 0 1 0 0 0 0 0 1 0"/></filter></defs><mask id="b" width="38" height="36" x="-1" y="-1" maskUnits="userSpaceOnUse"><g filter="url(#a)"><path fill="#fff" d="M-1-1h38v36H-1V-1z"/></g></mask><path fill="#fff" d="M18.7 33.6v-3.9c2.7-.2 4.7-1.4 4.7-3v-1.2c2.8.6 11.5 2.8 12.1 8.1H18.7zM14 26.7v-2.5c1.2.5 2.5.8 3.8.8h.4c1.3 0 2.6-.2 3.8-.8v2.5c0 .7-1.6 1.6-4 1.6s-4-1-4-1.6zm3.3 6.8H.5c.5-5.3 9.3-7.5 12.1-8.1v1.3c0 1.6 2 2.8 4.7 3v3.8zM20.2 20c0 .4-.3.6-.6.6-.4 0-.6-.3-.6-.6 0-.4.3-.6.6-.6s.6.3.6.6zm-9.3-4.1c0-.2 0-.3-.2-.5-1-1.1-1.4-2.1-1.3-3 .1-.5.3-.9.7-1.2.9 0 4.3-.2 6.5-2 2.4 1.4 5.2 2.1 8 2.1.5 0 1 0 1.5-.1.4.3.6.7.6 1.2.1.8-.3 1.9-1.3 3-.1.1-.2.3-.2.5v.4L21 18.5c-.8-.8-2.1-.7-2.9.1-.8.8-.8 2.1.1 2.9.8.8 2.1.7 2.9-.1.4-.4.6-.9.6-1.4v-.2l3.3-1.7c-.3 1.4-1 2.7-1.9 3.8-1.3 1.2-3 1.9-4.8 1.8h-.4c-1.8.1-3.5-.5-4.8-1.8-2.3-2.3-2.2-5.9-2.2-6zM25.5 10c-3 .2-6-.6-8.6-2.1-.3-.2-.7-.2-.9.1-1.4 1.5-4.1 1.9-5.3 2 .4-5 3.5-6.1 6.1-6.1.4 0 .8 0 1.2.1h.3c.4-.1.8-.1 1.2-.1 2.5-.1 5.6 1 6 6.1-.1 0 0 0 0 0zM9.1 15.8c-.6-.2-1.1-.6-1.5-1.1-.7-1-.8-2.6-.1-4.7l.5-.3c.2-.2.3-.4.3-.7-.1-2.1.6-4.2 2-5.9C11.9 1.3 14.5.4 18 .4s6.1.9 7.8 2.7c1.4 1.6 2.1 3.7 2 5.9 0 .3.1.5.3.7l.5.4c.6 2.1.6 3.6-.1 4.7-.4.5-.9.9-1.5 1.1.9-1 1.3-2.3 1.2-3.6-.1-.8-.5-1.5-1.2-2-.3-7.1-5.4-7.9-7.5-7.9-.5 0-.9 0-1.4.1-.5-.1-.9-.1-1.4-.1-2.2 0-7.2.8-7.5 7.9-.6.5-1 1.2-1.2 2-.2 1.3.2 2.5 1.1 3.5zM23.4 24v-.7c.2-.1.4-.3.5-.5 1.4-1.5 2.2-3.4 2.5-5.4 1.2-.2 2.4-.8 3.1-1.8 1-1.5 1.1-3.6.3-6.2-.1-.2-.2-.3-.3-.4l-.4-.3c.1-2.4-.8-4.7-2.3-6.5C24.9.1 21.9-1 18-1 14.1-1 11.1.1 9.2 2.2 7.6 4 6.8 6.3 6.8 8.7l-.4.3c-.1.1-.2.2-.3.4-.9 2.6-.8 4.7.3 6.2.8 1 1.9 1.7 3.1 1.9.2 2 1.1 3.9 2.5 5.4.2.2.4.3.5.5v.6C9.8 24.5-1.2 27-1 34.3c0 .4.3.7.7.7h36.6c.4 0 .7-.3.7-.7.2-7.3-10.8-9.8-13.6-10.3z" mask="url(#b)"/></g></svg>