<svg width="39" height="12" viewBox="0 0 39 12" fill="none" xmlns="http://www.w3.org/2000/svg">
<path fill-rule="evenodd" clip-rule="evenodd" d="M37.2696 8.35017L37.7563 9.67975C37.8068 9.82854 37.8619 10.0052 37.8987 10.14H37.9079C37.9492 10.0052 37.9951 9.83319 38.0502 9.67039L38.491 8.35017H38.918L38.3118 9.95399C38.0226 10.7258 37.8252 11.1209 37.5497 11.3626C37.3976 11.4988 37.2455 11.5715 37.1374 11.6061C37.1044 11.546 36.9528 11.2836 36.9528 11.2836C37.0538 11.2511 37.187 11.186 37.3064 11.0838C37.4166 10.9954 37.5543 10.8373 37.6461 10.6281C37.6645 10.5863 37.6783 10.5537 37.6783 10.5305C37.6783 10.5073 37.6691 10.4747 37.6507 10.4236L36.8288 8.35017H37.2696ZM27.9642 8.29898C28.6437 8.29898 28.809 8.7685 28.809 9.21947V10.061C28.809 10.2562 28.8181 10.4468 28.8457 10.6002H28.4784L28.4462 10.3166H28.4324C28.3085 10.4933 28.0697 10.6514 27.7529 10.6514C27.3029 10.6514 27.0734 10.3305 27.0734 10.0052C27.0734 9.4613 27.5508 9.16375 28.4095 9.16837V9.12183C28.4095 8.93594 28.359 8.60116 27.9044 8.60116C27.7175 8.60116 27.523 8.65446 27.3721 8.74034C27.3344 8.6748 27.2341 8.49895 27.2341 8.49895C27.4177 8.378 27.684 8.29898 27.9642 8.29898ZM35.5252 8.29898C36.2047 8.29898 36.37 8.7685 36.37 9.21947V10.061C36.37 10.2562 36.3792 10.4468 36.4068 10.6002H36.0394L36.0073 10.3166H35.9935C35.8695 10.4933 35.6308 10.6514 35.314 10.6514C34.864 10.6514 34.6344 10.3305 34.6344 10.0052C34.6344 9.4613 35.1119 9.16375 35.9706 9.16837V9.12183C35.9706 8.93594 35.92 8.60116 35.4655 8.60116C35.2785 8.60116 35.0841 8.65446 34.9331 8.74034C34.8954 8.6748 34.7952 8.49895 34.7952 8.49895C34.9788 8.378 35.2451 8.29898 35.5252 8.29898ZM23.2082 7.41568C23.5939 7.41568 23.8373 7.49935 23.9429 7.55517C23.9429 7.55517 23.8208 7.77003 23.7708 7.85187C23.6265 7.79485 23.439 7.75511 23.222 7.75511C22.4965 7.75511 22.0144 8.22459 22.0144 9.04748C22.0144 9.81451 22.4506 10.3073 23.2036 10.3073C23.4091 10.3073 23.6179 10.2708 23.7747 10.2119C23.8111 10.2762 23.9383 10.498 23.9383 10.498C23.7913 10.5724 23.4975 10.6468 23.121 10.6468C22.2486 10.6468 21.592 10.0888 21.592 9.06139C21.592 8.08049 22.2486 7.41568 23.2082 7.41568ZM20.2058 8.29899C20.9313 8.29899 21.1241 8.94521 21.1241 9.35891C21.1241 9.44258 21.115 9.50769 21.1104 9.54958H19.5492C19.5584 10.1028 19.9074 10.3305 20.3115 10.3305C20.5497 10.3305 20.7101 10.2959 20.844 10.2473C20.8811 10.3092 20.9956 10.5073 20.9956 10.5073C20.8533 10.5724 20.6099 10.6467 20.2563 10.6467C19.5722 10.6467 19.1636 10.1912 19.1636 9.51234C19.1636 8.83359 19.5584 8.29899 20.2058 8.29899ZM30.0667 7.70393V8.35015H30.6452V8.66163H30.0667V9.87499C30.0667 10.1539 30.1448 10.312 30.3697 10.312C30.4028 10.312 30.4331 10.3106 30.4608 10.3083C30.5082 10.3891 30.6222 10.591 30.6222 10.591C30.5442 10.6234 30.4202 10.6467 30.2641 10.6467C30.0759 10.6467 29.9244 10.5863 29.8279 10.4747C29.7132 10.3539 29.6719 10.1539 29.6719 9.88889V8.66163H29.3274V8.35015H29.6719V7.70393H30.0667ZM33.1287 7.44363C33.5236 7.44363 33.8129 7.5366 33.9965 7.70393C34.1664 7.85269 34.2674 8.0805 34.2674 8.35945C34.2674 8.64309 34.1848 8.86618 34.0287 9.02891C33.8174 9.25668 33.4731 9.37287 33.0828 9.37287C32.9634 9.37287 32.8533 9.36819 32.7614 9.345V10.6002H32.3619V7.504C32.5548 7.47148 32.8073 7.44363 33.1287 7.44363ZM15.6103 7.46683L15.9776 9.05214C16.0694 9.44257 16.1521 9.83318 16.2072 10.1354H16.2163C16.2669 9.82389 16.3633 9.45201 16.4689 9.04749L16.8821 7.46683H17.2999L17.6764 9.05675C17.7637 9.42867 17.8463 9.80058 17.8922 10.1307H17.9014C17.9657 9.78668 18.053 9.43793 18.1494 9.04749L18.558 7.46683H18.9666L18.0897 10.6002H17.6718L17.2816 8.96847C17.1852 8.56868 17.1209 8.26185 17.0795 7.94565H17.0704C17.0153 8.25724 16.9464 8.56403 16.8316 8.96847L16.3909 10.6002H15.973L15.1879 7.46683H15.6103ZM24.9663 7.29951V8.70351H24.9755C25.0398 8.58725 25.1408 8.48503 25.2648 8.41526C25.3842 8.34553 25.5265 8.299 25.6781 8.299C25.9765 8.299 26.454 8.48503 26.454 9.26131V10.6002H26.05V9.30788C26.05 8.94522 25.9168 8.63839 25.5357 8.63839C25.2739 8.63839 25.0673 8.82431 24.9939 9.04748C24.9709 9.10327 24.9663 9.16374 24.9663 9.24276V10.6002H24.5623V7.29951H24.9663ZM27.4774 9.95866C27.4774 10.2237 27.6519 10.3492 27.8585 10.3492C28.1478 10.3492 28.3314 10.1632 28.3957 9.97267C28.4095 9.93078 28.4187 9.88425 28.4187 9.84247V9.452C27.9779 9.44257 27.4774 9.52163 27.4774 9.95866ZM35.0385 9.95866C35.0385 10.2237 35.2129 10.3492 35.4196 10.3492C35.7089 10.3492 35.8925 10.1632 35.9568 9.97267C35.9706 9.93078 35.9797 9.88425 35.9797 9.84247V9.452C35.5389 9.44257 35.0385 9.52163 35.0385 9.95866ZM20.1737 8.59188C19.765 8.59188 19.586 8.97309 19.5538 9.25669H20.7339C20.7385 8.99632 20.6283 8.59188 20.1737 8.59188ZM33.1379 7.76441C32.9634 7.76441 32.8302 7.77831 32.7614 7.7969V9.01497C32.8487 9.03816 32.9589 9.04749 33.092 9.04749C33.5741 9.04749 33.868 8.81039 33.868 8.378C33.868 7.9643 33.5787 7.76441 33.1379 7.76441ZM30.419 0.700338V1.52362H32.8236V1.95132H30.419V2.84517H32.3599C32.3599 2.84517 32.1108 4.12942 30.6561 5.21071C31.2445 5.52455 32.0198 5.74683 32.9651 5.89664C32.9651 5.89664 32.8118 6.1719 32.6812 6.38478C31.6474 6.20284 30.8393 5.88379 30.2063 5.51001C29.5687 5.89322 28.7435 6.22695 27.6769 6.41491C27.6026 6.30397 27.4004 5.94064 27.4004 5.94064C28.3671 5.78749 29.1635 5.53972 29.758 5.21652C28.2961 4.15491 28.0147 2.84517 28.0147 2.84517H29.9501V1.95132H27.4525V1.52362H29.9501V0.700338H30.419ZM16.1741 2.27342L16.549 2.475C16.3711 2.90373 16.205 3.19543 16.1596 3.28702V6.39702H15.7372V3.95866C15.4955 4.2871 15.3536 4.45905 15.2829 4.54015C15.2332 4.45289 15.0449 4.12275 15.0449 4.12275C15.4985 3.63778 15.8983 2.97167 16.1741 2.27342ZM34.7574 0.717466L35.2499 0.828274L35.2347 0.868824C35.0352 1.39671 34.8485 1.8461 34.6796 2.2046V6.39702H34.2107V3.10732C34.0494 3.37417 33.8619 3.64693 33.6513 3.92106L33.3915 3.46241C33.9438 2.70148 34.4087 1.77658 34.7469 0.749463L34.7574 0.717466ZM22.4255 0.71634L22.8695 0.828696C22.8695 0.828696 22.5868 1.73068 22.3706 2.20513L22.3716 6.39702H21.9027V3.12422C21.7149 3.48265 21.589 3.7181 21.4296 3.92898L21.1758 3.48389C21.8336 2.64308 22.4255 0.71634 22.4255 0.71634ZM19.4396 0.693848L19.862 0.779488L19.8522 0.817855C19.7651 1.15584 19.6688 1.48791 19.5655 1.80586H20.8291V2.21009H20.5247C20.446 3.35812 20.2454 4.24732 19.9282 4.85384C20.1797 5.34966 20.665 5.81468 20.8018 5.94027C20.7711 5.9992 20.5599 6.36555 20.5599 6.36555C20.5599 6.36555 19.8577 5.63724 19.6987 5.28497C19.5201 5.58881 19.1904 5.98276 18.7434 6.38663L18.516 5.98473C18.516 5.98473 19.1273 5.47106 19.4736 4.85135C19.2581 4.29414 19.1151 3.6961 19.048 3.07142C18.9741 3.20349 18.9336 3.27438 18.8592 3.38733C18.8592 3.38733 18.662 3.04023 18.6219 2.97533C18.9765 2.34378 19.2425 1.5997 19.4318 0.729751L19.4396 0.693848ZM38.1868 0.742331V2.08813L39.0006 2.08815V2.5394L38.1868 2.53938V5.46974C38.1868 5.93617 37.812 6.31572 37.3512 6.31572H36.8049V5.82152H37.3512C37.5429 5.82152 37.6988 5.66369 37.6988 5.46974V2.53938L35.0934 2.5394V2.08815L37.6988 2.08813V0.742331H38.1868ZM26.5068 4.32274V6.29137H23.2037V4.32274H26.5068ZM18.3898 4.08752V5.17458C18.4686 5.1069 18.7106 4.89144 18.7919 4.81819L18.9864 5.15927L18.0949 5.9212C18.0949 5.9212 17.9064 5.59152 17.8683 5.52911C17.9208 5.47019 17.9907 5.34805 17.9907 5.11545L17.9906 4.49172H17.1818C17.1818 5.42158 17.1449 5.75829 16.5323 6.24313C16.5323 6.24313 16.3845 5.97924 16.3189 5.86889C16.845 5.44798 16.7826 4.87293 16.7826 4.08752H18.3898ZM26.0611 4.75045H23.6726V5.88714H26.0611V4.75045ZM31.7034 3.26665H28.684C28.8568 3.63068 29.2852 4.33365 30.2081 4.94467C31.1267 4.32383 31.542 3.61646 31.7034 3.26665ZM36.0438 3.23744L36.8944 4.60627L36.4502 4.85172L35.6524 3.47198L36.0438 3.23744ZM20.1254 2.21009H19.4304C19.4234 2.23853 19.3577 2.40548 19.3432 2.43787C19.4297 3.2798 19.5578 3.92504 19.7245 4.35803C19.931 3.85619 20.0658 3.13446 20.1254 2.21009ZM26.5533 3.38186V3.78606H23.1572V3.38186H26.5533ZM18.5989 3.17014V3.57433H16.6897V3.17014H18.5989ZM26.5533 2.44098V2.84518H23.1572V2.44098H26.5533ZM17.8787 0.794433V2.27632H18.3101V1.21781H18.6861V2.65701H16.6494V1.24136H17.0485V2.27632H17.4795V0.794433H17.8787ZM16.1961 0.696146L16.5646 0.940535C16.2853 1.53776 15.8505 2.15488 15.3415 2.62595L15.119 2.23576C15.5228 1.84125 15.905 1.28563 16.1961 0.696146ZM24.8529 0.716347L25.1842 1.47658L26.8785 1.47659V1.9043H22.8552V1.47659L24.7141 1.47658L24.4729 0.883614L24.8529 0.716347Z" fill="#4D4D4D"/>
<path fill-rule="evenodd" clip-rule="evenodd" d="M4.73874 7.36282C4.67992 7.39284 4.61373 7.41023 4.54333 7.41023C4.38043 7.41023 4.2389 7.31952 4.16444 7.1852L4.136 7.12213L2.94995 4.48696C2.93716 4.45824 2.92923 4.42586 2.92923 4.39428C2.92923 4.27288 3.02647 4.17443 3.1464 4.17443C3.19511 4.17443 3.24009 4.19083 3.27628 4.21808L4.67592 5.22706C4.77817 5.29479 4.90033 5.33453 5.03174 5.33453C5.1101 5.33453 5.18484 5.31967 5.25444 5.29408L11.8364 2.32798C10.6566 0.920075 8.71354 0 6.51471 0C2.91661 0 0 2.46103 0 5.49708C0 7.15335 0.877518 8.64432 2.25098 9.65208C2.36119 9.73173 2.43332 9.8626 2.43332 10.0103C2.43332 10.0591 2.42303 10.1038 2.41041 10.1503C2.3007 10.5647 2.12517 11.2282 2.11693 11.2592C2.10327 11.3113 2.08189 11.3655 2.08189 11.4199C2.08189 11.5414 2.17909 11.6397 2.2992 11.6397C2.3462 11.6397 2.38479 11.622 2.42453 11.5988L3.85076 10.7651C3.95808 10.7025 4.07162 10.6636 4.1968 10.6636C4.26338 10.6636 4.32769 10.674 4.38818 10.6927C5.0536 10.8865 5.77141 10.9942 6.51471 10.9942C10.1127 10.9942 13.0297 8.53295 13.0297 5.49708C13.0297 4.5775 12.7606 3.71152 12.2875 2.9497L4.78627 7.33501L4.73874 7.36282Z" fill="#1AAD19"/>
</svg>
